<?xml version="1.0" encoding="UTF-8" standalone="no"?>
<!-- Created with Inkscape (http://www.inkscape.org/) -->

<svg
   version="1.1"
   id="svg1"
   width="319"
   height="391.76001"
   viewBox="0 0 319 391.76001"
   sodipodi:docname="Apple_Logo_429C_090318.eps"
   xmlns:inkscape="http://www.inkscape.org/namespaces/inkscape"
   xmlns:sodipodi="http://sodipodi.sourceforge.net/DTD/sodipodi-0.dtd"
   xmlns="http://www.w3.org/2000/svg"
   xmlns:svg="http://www.w3.org/2000/svg">
  <defs
     id="defs1" />
  <sodipodi:namedview
     id="namedview1"
     pagecolor="#ffffff"
     bordercolor="#000000"
     borderopacity="0.25"
     inkscape:showpageshadow="2"
     inkscape:pageopacity="0.0"
     inkscape:pagecheckerboard="0"
     inkscape:deskcolor="#d1d1d1">
    <inkscape:page
       x="0"
       y="0"
       inkscape:label="1"
       id="page1"
       width="319"
       height="391.76001"
       margin="0"
       bleed="0" />
  </sodipodi:namedview>
  <g
     id="g1"
     inkscape:groupmode="layer"
     inkscape:label="1">
    <g
       id="group-R5">
      <path
         id="path2"
         d="m 1777.44,2228.29 c -241.89,17.9 -447.11,-135.11 -561.6,-135.11 -116.17,0 -295.266,131.25 -485.176,127.67 C 481.309,2217.19 251.484,2075.75 122.91,1852.49 -136.086,1402.94 56.7969,736.789 309.063,372 432.473,193.75 579.648,-7.12109 772.969,0.191406 959.043,7.51953 1029.43,120.539 1254.36,120.539 1479.14,120.539 1542.56,0.191406 1739.34,3.78906 1939.61,7.51953 2066.5,185.738 2189,364.98 c 141.76,206.891 200,407.219 203.46,417.809 -4.43,1.68 -390.41,149.762 -394.26,594.461 -3.49,371.79 303.46,550.5 317.43,559.1 -174.24,256.62 -443.38,284.92 -538.19,291.94"
         style="fill:#b3b5b7;fill-opacity:1;fill-rule:nonzero;stroke:none"
         transform="matrix(0.13333333,0,0,-0.13333333,0,391.76)" />
      <path
         id="path3"
         d="m 1628.18,2469.11 c 102.74,124.16 171.86,297.07 152.84,469.06 -147.88,-5.87 -326.7,-98.49 -432.76,-222.57 -94.96,-109.92 -178.38,-285.96 -155.72,-454.44 164.8,-12.73 333.01,83.71 435.64,207.95"
         style="fill:#b3b5b7;fill-opacity:1;fill-rule:nonzero;stroke:none"
         transform="matrix(0.13333333,0,0,-0.13333333,0,391.76)" />
    </g>
  </g>
</svg>
